<?xml version="1.0" standalone="no"?>
<!DOCTYPE svg PUBLIC "-//W3C//DTD SVG 20010904//EN"
 "http://www.w3.org/TR/2001/REC-SVG-20010904/DTD/svg10.dtd">
<svg version="1.0" xmlns="http://www.w3.org/2000/svg"
 width="260.000000pt" height="260.000000pt" viewBox="0 0 260.000000 260.000000"
 preserveAspectRatio="xMidYMid meet">
<metadata>
Created by potrace 1.14, written by Peter Selinger 2001-2017
</metadata>
<g transform="translate(0.000000,260.000000) scale(0.100000,-0.100000)"
fill="#000000" stroke="none">
<path d="M1039 2008 c-19 -7 -19 -20 -17 -505 l3 -498 84 -3 c61 -2 87 1 93
10 4 7 7 52 6 99 -1 85 -1 87 33 127 19 23 41 42 49 42 9 -1 49 -59 95 -138
l80 -137 114 -3 c93 -2 112 0 108 11 -3 8 -60 99 -128 203 -68 104 -123 196
-123 205 -1 9 52 73 116 142 65 68 114 127 111 131 -4 3 -57 6 -118 6 l-113 0
-103 -115 c-57 -63 -107 -114 -112 -112 -6 2 -9 114 -8 264 2 201 -1 263 -10
269 -17 10 -134 11 -160 2z"/>
<path d="M415 1710 c-101 -25 -187 -96 -231 -193 -34 -74 -44 -199 -23 -275
16 -60 65 -138 113 -180 98 -86 252 -102 355 -37 50 31 57 31 65 0 6 -25 8
-26 89 -23 l82 3 0 345 0 345 -82 3 c-81 3 -83 2 -89 -23 -8 -31 -14 -31 -59
-1 -56 39 -150 54 -220 36z m161 -179 c54 -25 92 -76 106 -144 10 -47 9 -61
-6 -101 -25 -64 -59 -102 -111 -122 -181 -69 -315 182 -177 330 53 56 117 69
188 37z"/>
<path d="M1987 1710 c-62 -16 -110 -45 -159 -98 -59 -63 -83 -110 -98 -198
-23 -128 20 -255 115 -343 67 -61 124 -84 216 -84 67 0 84 4 135 32 69 37 72
37 76 9 3 -21 9 -23 82 -26 57 -2 82 1 87 10 5 7 9 159 9 338 0 179 -4 331 -9
338 -5 9 -30 12 -87 10 -73 -3 -79 -5 -82 -25 -3 -23 -26 -31 -36 -14 -3 5
-26 18 -51 30 -53 25 -144 34 -198 21z m172 -193 c107 -71 108 -262 1 -333
-124 -82 -270 5 -270 161 0 93 34 153 105 187 52 24 113 19 164 -15z"/>
<path d="M154 826 c-3 -7 -4 -42 -2 -77 l3 -64 1130 -3 c622 -1 1140 0 1153 3
22 5 23 10 20 78 l-3 72 -1148 3 c-960 2 -1148 0 -1153 -12z"/>
</g>
</svg>
